HIERARCHY
ROOT Hips
{
 OFFSET 0.000000 0.000000 0.000000
 CHANNELS 6 Xposition Yposition Zposition Yrotation Xrotation Zrotation
 JOINT Chest
 {
  OFFSET 0.000000 9.585900 0.002600
  CHANNELS 3 Yrotation Xrotation Zrotation
  JOINT Chest2
  {
   OFFSET 0.000000 9.601200 -0.005300
   CHANNELS 3 Yrotation Xrotation Zrotation
   JOINT Chest3
   {
    OFFSET 0.000000 9.561800 0.000000
    CHANNELS 3 Yrotation Xrotation Zrotation
    JOINT Chest4
    {
     OFFSET 0.000000 9.552100 0.000000
     CHANNELS 3 Yrotation Xrotation Zrotation
     JOINT Neck
     {
      OFFSET 0.000000 14.453000 0.000000
      CHANNELS 3 Yrotation Xrotation Zrotation
      JOINT Head
      {
       OFFSET 0.000000 8.936500 -0.011300
       CHANNELS 3 Yrotation Xrotation Zrotation
       End Site
       {
        OFFSET 0.000000 17.073600 -0.006000
       }
      }
     }
     JOINT RightCollar
     {
      OFFSET -2.921100 9.558500 0.000000
      CHANNELS 3 Yrotation Xrotation Zrotation
      JOINT RightShoulder
      {
       OFFSET -13.519700 0.000000 0.000000
       CHANNELS 3 Yrotation Xrotation Zrotation
       JOINT RightElbow
       {
        OFFSET 0.000000 -29.696600 0.000000
        CHANNELS 3 Yrotation Xrotation Zrotation
        JOINT RightWrist
        {
         OFFSET 0.000000 -24.004700 0.000000
         CHANNELS 3 Yrotation Xrotation Zrotation
         End Site
         {
          OFFSET 0.000000 -17.728500 0.000000
         }
        }
       }
      }
     }
     JOINT LeftCollar
     {
      OFFSET 2.921100 9.558500 0.000000
      CHANNELS 3 Yrotation Xrotation Zrotation
      JOINT LeftShoulder
      {
       OFFSET 13.519700 0.000000 0.000000
       CHANNELS 3 Yrotation Xrotation Zrotation
       JOINT LeftElbow
       {
        OFFSET 0.000000 -29.696600 0.000000
        CHANNELS 3 Yrotation Xrotation Zrotation
        JOINT LeftWrist
        {
         OFFSET 0.000000 -24.004700 0.000000
         CHANNELS 3 Yrotation Xrotation Zrotation
         End Site
         {
          OFFSET 0.000000 -17.728500 0.000000
         }
        }
       }
      }
     }
    }
   }
  }
 }
 JOINT RightHip
 {
  OFFSET -7.771700 -0.012900 -0.001300
  CHANNELS 3 Yrotation Xrotation Zrotation
  JOINT RightKnee
  {
   OFFSET 0.000000 -40.869800 0.001200
   CHANNELS 3 Yrotation Xrotation Zrotation
   JOINT RightAnkle
   {
    OFFSET 0.000000 -39.717900 0.002100
    CHANNELS 3 Yrotation Xrotation Zrotation
    JOINT RightToe
    {
     OFFSET 0.000000 -4.965400 11.033500
     CHANNELS 3 Yrotation Xrotation Zrotation
     End Site
     {
      OFFSET 0.000000 -1.423100 5.872300
     }
    }
   }
  }
 }
 JOINT LeftHip
 {
  OFFSET 7.771700 -0.012900 -0.001300
  CHANNELS 3 Yrotation Xrotation Zrotation
  JOINT LeftKnee
  {
   OFFSET 0.000000 -40.869800 0.001200
   CHANNELS 3 Yrotation Xrotation Zrotation
   JOINT LeftAnkle
   {
    OFFSET 0.000000 -39.717900 0.002100
    CHANNELS 3 Yrotation Xrotation Zrotation
    JOINT LeftToe
    {
     OFFSET 0.000000 -4.965400 11.033500
     CHANNELS 3 Yrotation Xrotation Zrotation
     End Site
     {
      OFFSET 0.000000 -1.423100 5.872300
     }
    }
   }
  }
 }
}
MOTION
Frames: 5
Frame Time: 0.008333
0.000000 85.388000 0.000000 0.000000 -5.767877 0.000000 0.000000 11.653817 0.000000 0.000000 -5.885947 0.000000 0.000000 -0.000000 0.000000 0.000000 -0.000000 0.000000 0.000000 12.528835 0.000000 0.000000 0.711642 0.000000 0.000000 -0.000000 0.000000 0.000000 0.000000 -90.000000 0.000000 -2.309062 0.000000 0.000000 2.309062 0.000000 0.000000 -0.000000 0.000000 0.000000 -0.000000 90.000000 0.000000 -2.309062 0.000000 0.000000 2.309062 0.000000 0.000000 8.520406 0.000000 0.000000 1.905762 0.000000 -0.000000 -4.658285 0.000000 0.000000 -0.000000 0.000000 0.000000 8.520406 0.000000 0.000000 1.905762 0.000000 -0.000000 -4.658285 0.000000 0.000000 -0.000000 0.000000
-67.615970 63.241580 12.675984 161.352255 -52.969427 1.133213 7.589180 24.981691 7.807824 1.051317 4.271422 0.903836 1.690513 6.779529 1.497574 5.976225 20.528759 5.338489 8.055515 20.629804 -1.527587 15.045190 3.044049 -4.987887 0.446977 4.668840 3.827264 -11.932913 -5.101001 -12.526105 -72.189903 -38.347896 117.977109 -8.078393 -14.525016 -14.933832 -11.846817 0.353032 5.406772 -12.676289 -35.191663 39.863183 67.013606 -82.323316 -68.658975 13.031453 -10.625697 1.127516 -4.102335 -8.070486 8.568669 -25.498953 74.858505 -23.962676 0.823176 -12.513487 -2.516409 -0.324802 0.585978 -0.099160 -0.952021 -13.304674 -0.344419 14.533539 61.360927 7.429348 -2.228924 -5.667857 0.914986 -0.338219 -0.532855 -0.071266
-67.624708 63.246251 12.675175 161.408706 -53.010762 1.096951 7.569423 24.997498 7.787747 1.049586 4.278458 0.902202 1.699606 6.787038 1.479682 5.949777 20.566161 5.307926 8.090354 20.597213 -1.443560 14.973490 3.015217 -4.864291 0.479012 4.617973 3.896350 -11.717668 -5.181690 -12.538888 -71.966872 -38.310099 117.861878 -8.067436 -14.487896 -14.953815 -11.793356 0.569306 5.213907 -12.293809 -34.738669 39.254618 62.625764 -82.464890 -64.949818 12.784535 -10.511634 1.309424 -4.117556 -8.023359 8.566552 -25.494983 74.842874 -23.968106 0.817262 -12.505832 -2.512425 -0.325645 0.583335 -0.094648 -0.961715 -13.257170 -0.354285 14.510018 61.347205 7.407953 -2.233732 -5.674889 0.913806 -0.338677 -0.532132 -0.068825
-67.633608 63.249816 12.675399 161.474438 -53.045655 1.042119 7.543976 25.008393 7.768164 1.047591 4.284263 0.899445 1.698514 6.794976 1.467924 5.935108 20.582521 5.298049 8.090388 20.588802 -1.373096 14.920015 2.966470 -4.753070 0.484508 4.551575 3.901955 -11.476865 -5.220386 -12.535909 -71.749238 -38.266351 117.754835 -8.054117 -14.445068 -14.981760 -11.755304 0.769018 4.990193 -11.919305 -34.236193 38.649482 58.599382 -82.580682 -61.602070 12.615861 -10.374348 1.435183 -4.139923 -7.982669 8.573312 -25.510080 74.828522 -23.979498 0.798778 -12.501199 -2.522824 -0.304794 0.580226 -0.083572 -0.967640 -13.224871 -0.345047 14.462678 61.347177 7.368055 -2.256170 -5.667746 0.923286 -0.323680 -0.538090 -0.061124
-67.643315 63.253649 12.674848 161.539805 -53.084034 0.983982 7.516582 25.027450 7.743649 1.045591 4.289361 0.895514 1.695080 6.802865 1.461543 5.941045 20.586931 5.316762 8.056807 20.579945 -1.332508 14.871082 2.907228 -4.633222 0.475461 4.531249 3.882191 -11.232132 -5.296143 -12.539294 -71.541923 -38.219147 117.661221 -8.038735 -14.395804 -15.014926 -11.756238 0.931783 4.735666 -11.545269 -33.678917 38.038685 55.092846 -82.625373 -58.755479 12.461212 -10.223364 1.469054 -4.148404 -7.932422 8.596063 -25.558534 74.798273 -24.038304 0.795274 -12.514689 -2.503675 -0.308019 0.598915 -0.082098 -0.998114 -13.189657 -0.335687 14.448059 61.348772 7.349644 -2.270934 -5.669767 0.905411 -0.312751 -0.551987 -0.052055
